<?xml version="1.0" standalone="no"?>
<!DOCTYPE svg PUBLIC "-//W3C//DTD SVG 20010904//EN"
 "http://www.w3.org/TR/2001/REC-SVG-20010904/DTD/svg10.dtd">
<svg version="1.0" xmlns="http://www.w3.org/2000/svg"
 width="512.000000pt" height="512.000000pt" viewBox="0 0 512.000000 512.000000"
 preserveAspectRatio="xMidYMid meet">
<metadata>
Created by potrace 1.11, written by Peter Selinger 2001-2013
</metadata>
<g transform="translate(0.000000,512.000000) scale(0.100000,-0.100000)"
fill="#000000" stroke="none">
<path d="M2306 4945 c-238 -49 -457 -186 -618 -385 -107 -132 -226 -346 -312
-562 -76 -189 -164 -488 -191 -650 -3 -18 -8 -40 -10 -48 -2 -8 -7 -40 -10
-70 -4 -30 -9 -58 -10 -61 -6 -9 -19 -198 -19 -279 0 -74 10 -215 18 -255 44
-219 144 -379 284 -453 98 -52 184 -71 319 -68 139 3 219 22 343 80 62 29 71
34 155 93 245 170 476 520 620 938 15 44 30 87 33 95 3 8 6 20 8 25 1 6 14 51
29 100 23 79 46 175 61 255 3 14 11 52 18 85 66 290 77 580 31 760 -21 85 -98
236 -141 279 -57 57 -146 102 -241 121 -69 14 -300 14 -367 0z m109 -547 c39
-14 83 -62 105 -113 50 -117 47 -321 -11 -595 -11 -52 -23 -106 -25 -120 -7
-34 -58 -208 -89 -303 -75 -230 -192 -445 -301 -552 -79 -79 -142 -109 -224
-108 -79 0 -120 19 -160 75 -46 63 -62 127 -65 268 -3 111 2 173 30 345 16
103 105 434 134 500 5 11 15 36 22 55 63 174 165 348 262 445 109 109 216 143
322 103z"/>
<path d="M4200 4949 c-19 -4 -50 -11 -68 -14 -19 -3 -41 -9 -50 -14 -9 -5 -19
-10 -22 -10 -41 -11 -61 -18 -118 -46 -355 -171 -633 -590 -811 -1225 -37
-133 -72 -282 -86 -370 -23 -149 -28 -205 -31 -350 -5 -296 45 -484 168 -632
66 -79 151 -128 288 -166 34 -9 229 -10 275 -1 117 23 130 27 231 75 146 69
301 197 409 338 17 21 35 44 41 50 22 23 143 225 182 303 104 207 221 548 266
774 2 13 12 58 21 99 17 81 40 220 52 315 14 105 8 363 -10 445 -24 108 -98
253 -162 315 -51 50 -141 94 -225 110 -54 10 -311 13 -350 4z m84 -549 c48
-15 101 -78 122 -142 36 -113 26 -348 -26 -592 -97 -455 -256 -812 -431 -971
-71 -63 -128 -88 -204 -89 -155 0 -230 120 -228 369 1 94 15 247 28 295 2 8 7
31 10 50 13 79 69 292 106 403 96 295 214 500 352 615 88 72 178 93 271 62z"/>
<path d="M1188 4884 c-2 -1 -52 -5 -113 -9 -60 -4 -121 -9 -135 -10 -14 -2
-34 -4 -45 -4 -24 -1 -28 -10 -122 -286 -60 -178 -144 -450 -193 -630 -26 -96
-91 -344 -95 -365 -2 -8 -8 -33 -14 -55 -25 -96 -120 -532 -147 -675 -2 -14
-9 -47 -15 -75 -5 -27 -12 -66 -15 -85 -3 -19 -9 -57 -15 -85 -12 -64 -15 -79
-24 -140 -5 -27 -9 -52 -10 -55 0 -3 -5 -32 -10 -65 -5 -33 -9 -62 -10 -65 -1
-5 -16 -111 -20 -147 -2 -12 -6 -34 -9 -50 -3 -15 -8 -52 -11 -82 -4 -30 -8
-62 -10 -73 -2 -10 -7 -49 -10 -86 -5 -58 -3 -71 12 -84 43 -37 155 -24 346
40 65 22 120 42 122 44 2 1 5 17 8 33 3 17 12 75 21 130 25 153 26 159 31 175
2 8 7 31 10 50 8 50 17 102 22 125 2 11 21 110 42 220 41 210 134 651 156 735
2 8 13 58 25 110 11 52 42 176 67 275 25 99 46 185 47 190 30 123 141 520 188
675 27 91 56 185 63 210 7 25 18 58 24 74 6 16 10 30 8 33 -4 4 -165 11 -169
7z"/>
<path d="M3287 1734 c-1 -1 -90 -5 -197 -8 -320 -11 -681 -29 -985 -51 -44 -3
-114 -8 -155 -10 -41 -3 -100 -8 -130 -10 -30 -2 -89 -7 -130 -10 -141 -10
-215 -16 -260 -20 -25 -2 -76 -7 -115 -10 -127 -10 -196 -16 -238 -20 -23 -2
-69 -7 -102 -10 -33 -3 -82 -8 -110 -11 -27 -2 -66 -7 -85 -9 -19 -3 -64 -7
-100 -10 -73 -7 -102 -10 -215 -27 -94 -13 -118 -30 -163 -117 -59 -110 -77
-224 -58 -365 l8 -58 111 6 c62 3 123 8 137 10 14 3 68 7 120 11 52 3 111 8
130 10 19 1 76 6 125 10 50 3 106 8 125 10 19 2 76 6 125 9 50 4 110 8 135 11
25 2 83 7 130 10 238 16 363 26 395 30 17 2 71 7 120 10 92 6 173 12 280 20
33 3 96 7 140 10 44 3 105 8 135 10 30 2 93 7 140 10 85 6 154 10 285 20 39 3
108 7 155 10 47 3 117 7 155 10 39 2 124 7 190 11 66 4 140 8 165 9 25 2 90 4
145 5 75 2 104 6 118 18 37 33 111 214 156 384 l18 67 -50 11 c-84 18 -161 22
-410 24 -131 0 -239 0 -240 0z"/>
<path d="M2617 904 c-1 -1 -78 -5 -172 -9 -93 -4 -188 -8 -210 -10 -22 -1 -96
-6 -165 -10 -69 -4 -138 -9 -155 -10 -16 -1 -73 -5 -125 -9 -52 -4 -115 -9
-140 -11 -25 -2 -74 -7 -110 -10 -160 -13 -186 -16 -210 -20 -14 -2 -56 -7
-95 -11 -109 -10 -122 -11 -247 -29 -188 -26 -192 -28 -247 -140 -58 -119 -80
-276 -58 -414 l10 -61 56 4 c31 3 92 8 136 11 44 3 96 8 115 10 47 6 138 14
230 20 76 5 151 11 250 20 30 2 93 7 140 10 47 4 105 8 130 10 25 2 88 6 140
10 52 3 120 8 150 10 72 6 195 14 300 20 47 3 112 7 145 10 33 2 110 7 170 10
61 3 139 8 175 10 88 6 308 15 462 20 70 2 132 6 138 10 18 11 84 154 113 245
30 93 67 236 67 255 0 20 -83 39 -245 54 -73 8 -741 11 -748 5z"/>
</g>
</svg>
