<?xml version="1.0" standalone="no"?>
<!DOCTYPE svg PUBLIC "-//W3C//DTD SVG 20010904//EN"
 "http://www.w3.org/TR/2001/REC-SVG-20010904/DTD/svg10.dtd">
<svg version="1.0" xmlns="http://www.w3.org/2000/svg"
 width="512.000000pt" height="512.000000pt" viewBox="0 0 512.000000 512.000000"
 preserveAspectRatio="xMidYMid meet">
<metadata>
Created by potrace 1.11, written by Peter Selinger 2001-2013
</metadata>
<g transform="translate(0.000000,512.000000) scale(0.100000,-0.100000)"
fill="#000000" stroke="none">
<path d="M2838 4949 c-81 -19 -166 -93 -206 -179 -19 -40 -27 -77 -30 -137 -4
-79 -5 -81 -26 -73 -11 5 -73 23 -136 40 -63 17 -162 47 -220 66 -179 60 -216
65 -294 42 -63 -19 -137 -99 -160 -171 -76 -243 135 -527 499 -671 90 -36 177
-106 395 -320 179 -175 320 -329 320 -348 0 -4 -17 -6 -37 -3 -37 5 -89 9
-273 20 -47 3 -116 7 -155 10 -38 3 -101 8 -140 10 -38 3 -92 7 -120 10 -27 3
-72 7 -100 9 -27 3 -93 10 -145 16 -264 32 -332 7 -523 -196 -109 -116 -314
-321 -390 -391 -37 -35 -76 -77 -87 -95 -21 -35 -26 -100 -10 -142 10 -27 9
-28 -59 -41 -49 -10 -107 -67 -126 -126 -18 -53 -15 -155 6 -234 6 -22 13 -51
16 -65 2 -14 8 -41 13 -60 5 -19 14 -69 20 -110 6 -41 12 -86 15 -100 2 -14 6
-79 10 -145 12 -253 26 -312 111 -456 42 -72 173 -204 313 -318 85 -69 377
-286 518 -386 24 -17 60 -42 80 -58 83 -61 204 -113 333 -143 68 -16 84 -18
190 -33 65 -9 413 -7 460 2 14 3 59 11 100 17 516 81 902 341 1003 676 13 40
77 270 92 324 2 8 17 58 34 110 16 52 45 149 65 215 20 66 43 140 50 165 12
40 27 100 41 168 3 12 7 32 10 45 19 79 23 173 19 407 -6 404 -19 827 -29 975
-11 144 -16 201 -20 215 -2 8 -7 38 -10 65 -3 28 -7 57 -9 65 -1 8 -6 33 -10
55 -42 219 -119 442 -233 677 -80 163 -134 248 -189 297 -103 91 -246 94 -355
9 -20 -15 -39 -28 -41 -28 -2 0 -27 21 -54 48 -258 243 -304 274 -422 278 -37
1 -84 -2 -104 -7z m-654 -2489 c105 -47 216 -82 301 -96 22 -3 47 -8 55 -9 8
-2 43 -4 76 -4 l61 -1 33 -92 c60 -171 166 -365 229 -422 12 -11 21 -23 21
-28 0 -19 -85 -88 -148 -121 -37 -19 -105 -47 -152 -62 -126 -41 -170 -62
-220 -103 -40 -34 -51 -38 -96 -36 -168 4 -261 38 -454 163 -52 33 -109 66
-127 72 -25 8 -35 18 -43 47 -5 20 -10 44 -10 52 0 8 -11 44 -24 80 -50 138
-113 238 -211 331 -21 21 -37 40 -35 41 3 2 46 14 95 26 144 36 290 116 414
229 l44 40 65 -40 c36 -22 93 -52 126 -67z"/>
</g>
</svg>
